<svg id="Layer_1" xmlns="http://www.w3.org/2000/svg" viewBox="0 0 440.2 440.2"><style>.st0{fill:#fff;opacity:.7}</style><path class="st0" d="M182.2 432.8c12.1 4.9 24.9 7.4 38 7.4 13.1 0 25.9-2.4 38-7.4 12.6-5.1 23.9-12.5 33.5-22.1l119.1-119.1c9.6-9.6 17-20.9 22.1-33.5 4.9-12.1 7.4-24.9 7.4-38 0-13.1-2.4-26-7.3-38.1-5.1-12.6-12.4-24-22.1-33.6l-119.1-119c-9.6-9.6-21-16.9-33.6-22-12.1-4.9-24.9-7.3-38-7.3-13.1 0-26 2.4-38.1 7.3-12.6 5.1-23.9 12.5-33.6 22.1L29.4 148.6c-9.6 9.6-17 21-22.1 33.5C2.4 194.2 0 207 0 220.1c0 13.1 2.5 25.9 7.4 38 5.1 12.6 12.6 23.9 22.2 33.5l119.1 119.1c9.6 9.6 20.9 17 33.5 22.1zm83.4-48c-25.1 25.1-65.8 25.1-90.8 0L55.4 265.4c-25.1-25.1-25.1-65.8 0-90.8L174.8 55.2c25.1-25.1 65.8-25.1 90.8 0L385 174.6c25.1 25.1 25.1 65.8 0 90.8L265.6 384.8z"/><path class="st0" d="M205.9 220l86.2 86.2.1.1 66.6-66.6c10.8-10.8 10.9-28.5.2-39.3l-66.7-66.7-86.4 86.3zM180 194l86.3-86.3-26.4-26.4c-10.8-10.8-28.6-10.7-39.4.1L133.9 148l46.1 46zm59.7 164.8l26.6-26.6-158.4-158.3-26.6 26.6c-10.8 10.8-10.6 28.4.2 39.1l119.1 119.1c10.8 10.8 28.3 10.9 39.1.1z"/></svg>